<svg xmlns="http://www.w3.org/2000/svg" fill="none" viewBox="0 0 160 70"><g fill="#00112C" clip-path="url(#a)"><path d="M84.072 10H97v31.494zM74.964 10H62.026v31.494zM79.52 21.606l8.236 19.887h-5.398l-2.464-6.334h-6.03zM64.471 56l-.568 2.74c-.018.106-.052.122-.139.122h-1.649c-.105 0-.139-.035-.12-.176l2.26-9.917q.096-.477.067-.965a.1.1 0 0 1 .063-.101.1.1 0 0 1 .042-.005h2.356c.087 0 .12.037.139.125l2.639 10.898c.018.106-.019.14-.105.14h-1.832a.12.12 0 0 1-.128-.07.1.1 0 0 1-.011-.052l-.602-2.738zm2.053-1.864c-.241-1.281-.689-3.212-.861-4.459h-.019c-.172 1.212-.5 2.914-.785 4.46zM69.849 54.597c0-2.53 1.466-4.491 3.798-4.491h.262v-2.989c0-.053.034-.088.102-.088h1.833c.068 0 .084.035.084.088v9.987q-.017.583.052 1.161.007.038-.012.073a.1.1 0 0 1-.056.047c-.767.392-1.613.6-2.471.607-2.145.008-3.592-1.411-3.592-4.395m4.07-2.634a.9.9 0 0 0-.374-.054c-.953 0-1.67.885-1.67 2.619 0 1.838.717 2.6 1.655 2.6a1.4 1.4 0 0 0 .39-.051zM83.224 54.527c0 2.739-1.126 4.473-3.102 4.473-2.215 0-3.1-1.977-3.1-4.491 0-2.565 1.126-4.404 3.142-4.404 1.919 0 3.06 1.63 3.06 4.422m-4.21 0c0 1.612.343 2.664 1.108 2.664.764 0 1.091-.9 1.091-2.664 0-1.63-.261-2.637-1.073-2.637-.699.021-1.126.834-1.126 2.637M86.222 47.036c.068 0 .086.035.086.104v3.069q.454-.104.919-.104c1.772 0 3.118 1.388 3.118 4.075 0 3.138-1.754 4.82-3.95 4.82a6.3 6.3 0 0 1-1.977-.312.15.15 0 0 1-.105-.139V47.14a.094.094 0 0 1 .063-.1.1.1 0 0 1 .042-.004zm.699 4.907a2.1 2.1 0 0 0-.613.088v5.114q.177.04.359.035c.767 0 1.667-.8 1.686-2.949.015-1.68-.647-2.288-1.432-2.288M93.107 55.03c0 1.333.492 2.15 1.874 2.15a3.4 3.4 0 0 0 1.294-.242c.086-.035.136-.035.136.085v1.439c0 .122-.034.191-.118.226a3.66 3.66 0 0 1-1.689.312c-2.502 0-3.474-1.865-3.474-4.315 0-2.603 1.124-4.58 3.119-4.58 2.094 0 2.71 1.892 2.71 3.434q0 .654-.087 1.3a.16.16 0 0 1-.052.097.16.16 0 0 1-.1.041c-.173.02-.7.054-1.62.054zm1.448-1.63q.262.018.523-.018a.7.7 0 0 0 .019-.19c0-.657-.204-1.352-.903-1.352s-.956.71-1.048 1.56z"/></g><defs><clipPath id="a"><path fill="#fff" d="M0 0H35V49H0z" transform="translate(62 10)"/></clipPath></defs></svg>