<svg xmlns="http://www.w3.org/2000/svg" fill="#00112C" viewBox="0 0 160 70"><path d="M6.61 35.364 5.106 31.66l-1.504 3.703zm.594 1.51H2.973l-1.224 2.911H0l4.546-10.57h1.085c.839 2.122 4.546 10.57 4.546 10.57H8.428zm117.019-1.51-1.502-3.703-1.504 3.703zm.594 1.51h-4.231l-1.224 2.912h-1.749l4.547-10.57h1.084c.839 2.122 4.546 10.57 4.546 10.57h-1.748zM35.392 30.69h-4.126v2.553h4.021v1.51h-4.021v3.523h4.126v1.509h-5.665v-10.57h5.665zm6.715 3.379h.49q2.203 0 2.202-1.724c0-1.079-.7-1.618-2.133-1.618h-.56zm1.924 1.187 3.182 4.493h-1.888l-2.938-4.314h-.28v4.314h-1.539V29.18h1.819c1.364 0 2.344.253 2.938.793.664.574 1.014 1.364 1.014 2.298q0 1.134-.63 1.942c-.42.575-.979.899-1.678 1.043m7.903-6.04h1.54v10.569h-1.54zm14.34.576v1.904c-.91-.754-1.82-1.15-2.799-1.15-1.049 0-1.958.396-2.657 1.185-.735.792-1.085 1.726-1.085 2.84 0 1.115.35 2.051 1.085 2.805.734.753 1.608 1.15 2.692 1.15.56 0 1.015-.106 1.4-.286.21-.108.42-.218.664-.36.245-.144.454-.359.734-.577v1.905a5.54 5.54 0 0 1-2.798.756c-1.468 0-2.727-.54-3.776-1.582-1.05-1.079-1.539-2.337-1.539-3.847 0-1.33.42-2.551 1.294-3.594C60.538 29.647 61.937 29 63.615 29c.91 0 1.784.252 2.658.792m47.352.898h-4.127v2.553h3.987v1.51h-3.987v3.523h4.127v1.509h-5.665v-10.57h5.665zm22.488 3.595h4.233v.36c0 .79-.105 1.51-.28 2.12-.175.576-.49 1.078-.909 1.58-.946 1.116-2.17 1.655-3.637 1.655-1.434 0-2.658-.54-3.708-1.618-1.014-1.078-1.538-2.373-1.538-3.846q0-2.319 1.573-3.882c1.05-1.079 2.309-1.618 3.812-1.618.803 0 1.539.18 2.239.502.663.325 1.327.9 1.958 1.655l-1.12 1.078c-.838-1.15-1.853-1.724-3.077-1.724-1.084 0-1.994.395-2.727 1.15-.734.755-1.12 1.692-1.12 2.84 0 1.186.42 2.157 1.224 2.912.77.72 1.609 1.042 2.484 1.042.769 0 1.433-.252 2.063-.79.594-.54.944-1.187 1.014-1.906h-2.554v-1.51zm10.491-5.07v9.06h3.008v1.51h-4.546v-10.57zm7.729 0v10.57H160v-1.51h-4.127v-3.523h3.987v-1.509h-3.987V30.69H160v-1.474zm-77.43 6.149-1.503-3.703-1.503 3.703zm.596 1.51h-4.232l-1.224 2.911h-1.749l4.546-10.57h1.085c.839 2.122 4.546 10.57 4.546 10.57h-1.748zm-61.063-3.488 2.763 6.399h.42l2.832-6.399.98 6.399h1.608l-1.818-10.64h-.455l-3.322 7.477-3.218-7.477h-.454l-2.029 10.64h1.609zm77.43 6.399v-10.57h-1.54v7.335l-7.239-7.405h-.594v10.64h1.539v-7.44l7.24 7.44z"/></svg>